<svg xmlns="http://www.w3.org/2000/svg" aria-hidden="true" style="position:absolute;width:0;height:0;overflow:hidden"><defs><symbol id="icon-close" viewBox="0 0 32 32"><path stroke-linecap="round" stroke-linejoin="round" stroke-width="2.286" d="M24 8 8 24M8 8l16 16"/></symbol><symbol id="icon-flag" viewBox="0 0 32 32"><path fill="gold" d="M31.832 5.058H.243v23.508h31.589V5.058z" style="fill:var(--color1, #ffd700)"/><path fill="#0057b7" d="M.243 5.058h31.589v11.754H.243V5.058z" style="fill:var(--color2, #0057b7)"/></symbol><symbol id="icon-card" viewBox="0 0 51 32"><path fill="#ed0006" d="M25.6 26.935a14.53 14.53 0 0 1-9.496 3.518c-8.086 0-14.641-6.593-14.641-14.726S8.018 1.001 16.104 1.001c3.624 0 6.94 1.324 9.496 3.518a14.532 14.532 0 0 1 9.497-3.518c8.086 0 14.64 6.593 14.64 14.726s-6.555 14.726-14.64 14.726c-3.624 0-6.94-1.324-9.497-3.518z" style="fill:var(--color3, #ed0006)"/><path fill="#f9a000" d="M25.6 26.935c3.148-2.701 5.144-6.72 5.144-11.209S28.748 7.219 25.6 4.518A14.53 14.53 0 0 1 35.097 1c8.086 0 14.64 6.593 14.64 14.726s-6.555 14.726-14.64 14.726c-3.624 0-6.94-1.324-9.497-3.518z" style="fill:var(--color4, #f9a000)"/><path fill="#ff5e00" d="M25.6 26.935c3.148-2.701 5.144-6.72 5.144-11.208S28.748 7.22 25.6 4.519c-3.148 2.701-5.144 6.72-5.144 11.208s1.996 8.507 5.144 11.208z" style="fill:var(--color5, #ff5e00)"/></symbol></defs></svg>