<svg width="28" height="28" fill="none" xmlns="http://www.w3.org/2000/svg"><path d="M13.226.702c-1.856.106-3.48.544-5.177 1.396C4.378 3.942 1.755 7.352.937 11.345.744 12.287.684 12.914.684 14c0 1.086.06 1.713.253 2.655.692 3.379 2.711 6.398 5.596 8.369 1.734 1.184 3.639 1.906 5.839 2.212.796.11 2.46.11 3.261-.001 3.055-.422 5.638-1.694 7.774-3.828 2.13-2.127 3.402-4.713 3.829-7.779.11-.796.11-2.46-.001-3.261-.476-3.44-2.099-6.405-4.694-8.574A13.254 13.254 0 0 0 13.226.702m2.501 2.773c2.311.421 4.165 1.385 5.789 3.009 1.629 1.628 2.587 3.477 3.013 5.813.123.673.123 2.733 0 3.406-.426 2.335-1.383 4.182-3.013 5.814-1.69 1.693-3.715 2.709-6.093 3.055-.756.11-2.09.11-2.846 0-2.377-.346-4.397-1.359-6.095-3.055-1.601-1.599-2.578-3.465-2.994-5.72-.09-.488-.104-.72-.104-1.797s.014-1.309.104-1.797c.399-2.164 1.351-4.033 2.834-5.568 1.722-1.783 3.812-2.85 6.278-3.206.629-.091 2.526-.063 3.127.046" fill="#FD9222" fill-rule="evenodd"/></svg>