<svg width="32" height="32" fill="none" xmlns="http://www.w3.org/2000/svg"><path d="M23.573 2.246c-1.907.215-3.952 1.042-5.56 2.25-1.984 1.49-3.244 3.327-3.643 5.312-.135.672-.086 1.786.107 2.432a5.68 5.68 0 0 0 .729 1.533c.114.168.207.324.207.346 0 .022-2.925 2.969-6.501 6.547-6.303 6.309-6.504 6.517-6.618 6.827a1.75 1.75 0 0 0 .398 1.815 1.75 1.75 0 0 0 1.815.398c.31-.114.518-.315 6.827-6.618 3.578-3.576 6.523-6.501 6.543-6.501.02 0 .232.131.472.291.782.524 1.579.773 2.6.814.835.034 1.305-.03 2.068-.279 3.813-1.247 6.968-6.022 6.781-10.266-.107-2.456-1.86-4.449-4.292-4.883-.452-.081-1.308-.089-1.933-.018" fill="#FD9222" fill-rule="evenodd"/></svg>